<mxfile host="app.diagrams.net" modified="2023-10-17T02:46:49.718Z" agent="Mozilla/5.0 (Macintosh; Intel Mac OS X 10_15_7) AppleWebKit/537.36 (KHTML, like Gecko) Chrome/117.0.0.0 Safari/537.36" etag="eGwEUGBE1QLQqUl1rUzQ" version="22.0.4" type="device">
  <diagram name="Page-1" id="rYqLvfw7g5G31EFbUgKk">
    <mxGraphModel dx="2074" dy="1157" grid="1" gridSize="10" guides="1" tooltips="1" connect="1" arrows="1" fold="1" page="1" pageScale="1" pageWidth="827" pageHeight="1169" math="0" shadow="0">
      <root>
        <mxCell id="0" />
        <mxCell id="1" parent="0" />
        <mxCell id="6kaOl1Tnf8jys5eCi_w6-1" value="" style="whiteSpace=wrap;html=1;aspect=fixed;fillColor=#FFFFFF;strokeColor=#1A1A1A;dashed=1;strokeWidth=2;" vertex="1" parent="1">
          <mxGeometry x="453" y="50" width="310" height="310" as="geometry" />
        </mxCell>
        <mxCell id="6kaOl1Tnf8jys5eCi_w6-2" value="" style="whiteSpace=wrap;html=1;aspect=fixed;fillColor=#FFFFFF;strokeColor=#1A1A1A;dashed=1;strokeWidth=2;" vertex="1" parent="1">
          <mxGeometry x="13" y="50" width="300" height="300" as="geometry" />
        </mxCell>
        <mxCell id="6kaOl1Tnf8jys5eCi_w6-3" value="Producer" style="rounded=1;whiteSpace=wrap;html=1;fillColor=#b1ddf0;strokeColor=none;" vertex="1" parent="1">
          <mxGeometry x="157" y="110" width="120" height="60" as="geometry" />
        </mxCell>
        <mxCell id="6kaOl1Tnf8jys5eCi_w6-10" value="Consumer" style="rounded=1;whiteSpace=wrap;html=1;fillColor=#f0a30a;fontColor=#000000;strokeColor=none;" vertex="1" parent="1">
          <mxGeometry x="490" y="110" width="120" height="60" as="geometry" />
        </mxCell>
        <mxCell id="6kaOl1Tnf8jys5eCi_w6-11" value="" style="endArrow=none;html=1;rounded=0;strokeWidth=2;endFill=0;entryX=0;entryY=0.5;entryDx=0;entryDy=0;exitX=1;exitY=0.5;exitDx=0;exitDy=0;fillColor=#f0a30a;strokeColor=#67AB9F;" edge="1" parent="1" source="6kaOl1Tnf8jys5eCi_w6-3" target="6kaOl1Tnf8jys5eCi_w6-12">
          <mxGeometry width="50" height="50" relative="1" as="geometry">
            <mxPoint x="283" y="-5.504137931034393" as="sourcePoint" />
            <mxPoint x="313" y="-5.490000000000009" as="targetPoint" />
          </mxGeometry>
        </mxCell>
        <mxCell id="6kaOl1Tnf8jys5eCi_w6-12" value="" style="ellipse;whiteSpace=wrap;html=1;aspect=fixed;fillColor=#67AB9F;strokeColor=none;" vertex="1" parent="1">
          <mxGeometry x="360" y="150" width="20" height="20" as="geometry" />
        </mxCell>
        <mxCell id="6kaOl1Tnf8jys5eCi_w6-13" value="gRPC" style="text;html=1;strokeColor=none;fillColor=none;align=center;verticalAlign=middle;whiteSpace=wrap;rounded=0;" vertex="1" parent="1">
          <mxGeometry x="313" y="165" width="60" height="30" as="geometry" />
        </mxCell>
        <mxCell id="6kaOl1Tnf8jys5eCi_w6-14" value="" style="endArrow=none;html=1;entryX=0;entryY=0.5;entryDx=0;entryDy=0;exitX=1;exitY=0.5;exitDx=0;exitDy=0;strokeWidth=2;curved=1;strokeColor=#67AB9F;fillColor=#f0a30a;" edge="1" parent="1" source="6kaOl1Tnf8jys5eCi_w6-12" target="6kaOl1Tnf8jys5eCi_w6-10">
          <mxGeometry width="50" height="50" relative="1" as="geometry">
            <mxPoint x="373" y="725" as="sourcePoint" />
            <mxPoint x="423" y="675" as="targetPoint" />
            <Array as="points">
              <mxPoint x="420" y="120" />
            </Array>
          </mxGeometry>
        </mxCell>
        <mxCell id="6kaOl1Tnf8jys5eCi_w6-15" value="Registration Entity" style="ellipse;whiteSpace=wrap;html=1;fillColor=#99CCFF;strokeColor=#7EA6E0;fontColor=#000000;" vertex="1" parent="1">
          <mxGeometry x="50" y="90" width="120" height="60" as="geometry" />
        </mxCell>
        <mxCell id="6kaOl1Tnf8jys5eCi_w6-16" value="Projection &lt;br&gt;consuming registrations" style="ellipse;whiteSpace=wrap;html=1;fillColor=#f0a30a;strokeColor=#FFD966;fontColor=#000000;" vertex="1" parent="1">
          <mxGeometry x="595" y="115" width="120" height="80" as="geometry" />
        </mxCell>
        <mxCell id="6kaOl1Tnf8jys5eCi_w6-17" value="Akka JVM service" style="text;html=1;strokeColor=none;fillColor=none;align=left;verticalAlign=middle;whiteSpace=wrap;rounded=0;fontSize=16;" vertex="1" parent="1">
          <mxGeometry x="13" y="20" width="140" height="30" as="geometry" />
        </mxCell>
        <mxCell id="6kaOl1Tnf8jys5eCi_w6-18" value="Akka Edge Rust service" style="text;html=1;strokeColor=none;fillColor=none;align=left;verticalAlign=middle;whiteSpace=wrap;rounded=0;fontSize=16;" vertex="1" parent="1">
          <mxGeometry x="453" y="20" width="187" height="30" as="geometry" />
        </mxCell>
        <mxCell id="6kaOl1Tnf8jys5eCi_w6-34" value="Consumer" style="rounded=1;whiteSpace=wrap;html=1;fillColor=#f0a30a;fontColor=#000000;strokeColor=none;" vertex="1" parent="1">
          <mxGeometry x="50" y="220" width="120" height="60" as="geometry" />
        </mxCell>
        <mxCell id="6kaOl1Tnf8jys5eCi_w6-35" value="Projection &lt;br&gt;consuming observations" style="ellipse;whiteSpace=wrap;html=1;fillColor=#f0a30a;strokeColor=#FFD966;fontColor=#000000;" vertex="1" parent="1">
          <mxGeometry x="155" y="225" width="120" height="80" as="geometry" />
        </mxCell>
        <mxCell id="6kaOl1Tnf8jys5eCi_w6-41" value="Producer" style="rounded=1;whiteSpace=wrap;html=1;fillColor=#b1ddf0;strokeColor=none;" vertex="1" parent="1">
          <mxGeometry x="595" y="255" width="120" height="60" as="geometry" />
        </mxCell>
        <mxCell id="6kaOl1Tnf8jys5eCi_w6-40" value="Temperature Entity" style="ellipse;whiteSpace=wrap;html=1;fillColor=#99CCFF;strokeColor=#7EA6E0;fontColor=#000000;" vertex="1" parent="1">
          <mxGeometry x="488" y="235" width="120" height="60" as="geometry" />
        </mxCell>
        <mxCell id="6kaOl1Tnf8jys5eCi_w6-42" value="" style="endArrow=none;html=1;rounded=0;strokeWidth=2;endFill=0;entryX=0;entryY=0.5;entryDx=0;entryDy=0;exitX=1;exitY=0.5;exitDx=0;exitDy=0;fillColor=#f0a30a;strokeColor=#67AB9F;" edge="1" target="6kaOl1Tnf8jys5eCi_w6-43" parent="1">
          <mxGeometry width="50" height="50" relative="1" as="geometry">
            <mxPoint x="488" y="265" as="sourcePoint" />
            <mxPoint x="452" y="410.49" as="targetPoint" />
          </mxGeometry>
        </mxCell>
        <mxCell id="6kaOl1Tnf8jys5eCi_w6-43" value="" style="ellipse;whiteSpace=wrap;html=1;aspect=fixed;fillColor=#67AB9F;strokeColor=none;" vertex="1" parent="1">
          <mxGeometry x="385" y="235" width="20" height="20" as="geometry" />
        </mxCell>
        <mxCell id="6kaOl1Tnf8jys5eCi_w6-44" value="" style="endArrow=none;html=1;entryX=0;entryY=0.5;entryDx=0;entryDy=0;exitX=1;exitY=0.5;exitDx=0;exitDy=0;strokeWidth=2;curved=1;strokeColor=#67AB9F;fillColor=#f0a30a;" edge="1" source="6kaOl1Tnf8jys5eCi_w6-43" parent="1">
          <mxGeometry width="50" height="50" relative="1" as="geometry">
            <mxPoint x="392" y="-320" as="sourcePoint" />
            <mxPoint x="275" y="265" as="targetPoint" />
            <Array as="points">
              <mxPoint x="345" y="285" />
            </Array>
          </mxGeometry>
        </mxCell>
        <mxCell id="6kaOl1Tnf8jys5eCi_w6-46" value="gRPC" style="text;html=1;strokeColor=none;fillColor=none;align=center;verticalAlign=middle;whiteSpace=wrap;rounded=0;" vertex="1" parent="1">
          <mxGeometry x="393" y="205" width="60" height="30" as="geometry" />
        </mxCell>
        <mxCell id="6kaOl1Tnf8jys5eCi_w6-47" value="Web browser" style="ellipse;whiteSpace=wrap;html=1;aspect=fixed;fillColor=#bac8d3;strokeColor=#23445d;" vertex="1" parent="1">
          <mxGeometry x="490" y="440" width="60" height="60" as="geometry" />
        </mxCell>
        <mxCell id="6kaOl1Tnf8jys5eCi_w6-48" style="rounded=0;orthogonalLoop=1;jettySize=auto;html=1;strokeWidth=2;dashed=1;dashPattern=1 2;entryX=0.316;entryY=0.994;entryDx=0;entryDy=0;entryPerimeter=0;" edge="1" parent="1" source="6kaOl1Tnf8jys5eCi_w6-47" target="6kaOl1Tnf8jys5eCi_w6-1">
          <mxGeometry relative="1" as="geometry">
            <mxPoint x="600" y="490" as="sourcePoint" />
            <mxPoint x="570" y="400" as="targetPoint" />
          </mxGeometry>
        </mxCell>
      </root>
    </mxGraphModel>
  </diagram>
</mxfile>
